<svg xmlns="http://www.w3.org/2000/svg" viewBox="92 92 328 334" role="img" aria-label="TTYGlass logo">
  <path fill="#6EADBC" fill-rule="evenodd" d="
    M156 92
    C118 92 92 118 92 156
    V318
    C92 343 104 362 125 373
    L154 327
    H150
    C142 327 136 321 136 313
    V169
    C136 157 145 148 157 148
    H355
    C367 148 376 157 376 169
    V313
    C376 321 370 327 362 327
    H358
    L387 373
    C408 362 420 343 420 318
    V156
    C420 118 394 92 356 92
    Z

    M220 278
    H292
    L311 306
    H201
    Z

    M194 322
    H318
    L344 360
    H168
    Z

    M163 377
    H349
    L382 426
    H130
    Z
  "/>
</svg>
